# xmcd CD database file
#
# Track frame offsets:
#	183
#	17658
#	32295
#	50570
#	68715
#	84875
#	101058
#	122770
#	141048
#	159723
#	178725
#
# Disc length: 2621 seconds
#
# Revision: 2
# Processed by: cddbd v1.4b41PL1 Copyright (c) Steve Scherf et al.
# Submitted via: Feurio! 1.52 - http://www.feurio.com
#
DISCID=880a3b0b
DTITLE=Gringos Locos - Gringos Locos
DYEAR=1900
DGENRE=
TTITLE0=Higher then high
TTITLE1=Sweet little sisters
TTITLE2=Jealousy
TTITLE3=Mountain
TTITLE4=I Ain´t braggin´
TTITLE5=Mean rock´nroller
TTITLE6=Susie
TTITLE7=Shout
TTITLE8=Bad luck´s lament
TTITLE9=Tough kid
TTITLE10=The blues
EXTD=
EXTT0=
EXTT1=
EXTT2=
EXTT3=
EXTT4=
EXTT5=
EXTT6=
EXTT7=
EXTT8=
EXTT9=
EXTT10=
PLAYORDER=
